<svg width="55" height="54" viewBox="0 0 55 54" fill="none" xmlns="http://www.w3.org/2000/svg">
<g id="&#240;&#159;&#166;&#134; icon &#34;back square&#34;">
<g id="Group">
<path id="Vector" d="M19.55 52.7212H35.45C48.7 52.7212 54 47.5491 54 34.6188V19.1024C54 6.17212 48.7 1 35.45 1H19.55C6.3 1 1 6.17212 1 19.1024V34.6188C1 47.5491 6.3 52.7212 19.55 52.7212Z" fill="#90E2FD" stroke="#292D32" stroke-width="2" stroke-linecap="round" stroke-linejoin="round"/>
<g id="Vector_2">
<path d="M19.55 35.602H32.5879C37.0929 35.602 40.7499 32.0332 40.7499 27.6369C40.7499 23.2406 37.0929 19.6719 32.5879 19.6719H14.6475" fill="#90E2FD"/>
<path d="M19.55 35.602H32.5879C37.0929 35.602 40.7499 32.0332 40.7499 27.6369C40.7499 23.2406 37.0929 19.6719 32.5879 19.6719H14.6475" stroke="#292D32" stroke-width="2" stroke-miterlimit="10" stroke-linecap="round" stroke-linejoin="round"/>
</g>
<g id="Vector_3">
<path d="M18.4105 23.6792L14.25 19.5933L18.4105 15.5332" fill="#90E2FD"/>
<path d="M18.4105 23.6792L14.25 19.5933L18.4105 15.5332" stroke="#292D32" stroke-width="2" stroke-linecap="round" stroke-linejoin="round"/>
</g>
</g>
</g>
</svg>
