<svg width="59" height="57" viewBox="0 0 59 57" fill="none" xmlns="http://www.w3.org/2000/svg">
<g id="&#240;&#159;&#166;&#134; icon &#34;home 1&#34;">
<path id="Vector" d="M23.3924 2.92602L23.3932 2.92542C26.6871 0.343813 31.9456 0.362651 35.2803 2.95556C35.2804 2.95567 35.2806 2.95578 35.2807 2.95589L54.1565 17.6921C54.1576 17.693 54.1588 17.6939 54.16 17.6948C55.3192 18.6184 56.2988 20.0413 56.9256 21.6421C57.5524 23.2429 57.7935 24.937 57.5691 26.3698L53.9386 47.5708C53.9385 47.5718 53.9383 47.5727 53.9381 47.5737C53.1874 51.783 48.9994 55.271 44.6016 55.271H14.0405C9.58248 55.271 5.48361 51.8651 4.73299 47.6031C4.73287 47.6024 4.73274 47.6017 4.73261 47.6009L1.10065 26.3911L1.10024 26.3888C0.849439 24.9448 1.07655 23.2464 1.70231 21.645C2.32776 20.0444 3.3197 18.6224 4.50623 17.6985L4.50798 17.6972L23.3924 2.92602ZM29.3211 48.127C31.0323 48.127 32.4834 46.7456 32.4834 45.0168V36.5762C32.4834 34.8475 31.0323 33.466 29.3211 33.466C27.6099 33.466 26.1588 34.8475 26.1588 36.5762V45.0168C26.1588 46.7456 27.6099 48.127 29.3211 48.127Z" fill="#BFF8FF" stroke="black" stroke-width="2"/>
</g>
</svg>
