<svg width="40" height="40" viewBox="0 0 40 40" fill="none" xmlns="http://www.w3.org/2000/svg">
<path d="M29.559 0H9.853C4.41415 0 0 4.39444 0 9.81359V21.5978V23.5684C0 28.9875 4.41415 33.382 9.853 33.382H12.8089C13.341 33.382 14.0504 33.7367 14.3854 34.1702L17.3413 38.0917C18.6419 39.8258 20.7701 39.8258 22.0707 38.0917L25.0266 34.1702C25.401 33.6776 25.9922 33.382 26.6031 33.382H29.559C34.9979 33.382 39.412 28.9875 39.412 23.5684V9.81359C39.412 4.39444 34.9979 0 29.559 0ZM11.8236 19.706C10.7201 19.706 9.853 18.8192 9.853 17.7354C9.853 16.6516 10.7398 15.7648 11.8236 15.7648C12.9074 15.7648 13.7942 16.6516 13.7942 17.7354C13.7942 18.8192 12.9271 19.706 11.8236 19.706ZM19.706 19.706C18.6025 19.706 17.7354 18.8192 17.7354 17.7354C17.7354 16.6516 18.6222 15.7648 19.706 15.7648C20.7898 15.7648 21.6766 16.6516 21.6766 17.7354C21.6766 18.8192 20.8095 19.706 19.706 19.706ZM27.5884 19.706C26.4849 19.706 25.6178 18.8192 25.6178 17.7354C25.6178 16.6516 26.5046 15.7648 27.5884 15.7648C28.6722 15.7648 29.559 16.6516 29.559 17.7354C29.559 18.8192 28.6919 19.706 27.5884 19.706Z" fill="#A9A7FE"/>
</svg>
